<svg width="35" height="33" viewBox="0 0 35 33" fill="none" xmlns="http://www.w3.org/2000/svg">
<path d="M21 29C27.6274 29 33 23.6274 33 17C33 10.3726 27.6274 5 21 5C14.3726 5 9 10.3726 9 17C9 23.6274 14.3726 29 21 29Z" fill="#D8E7D4" stroke="#7BAD6E" stroke-width="2.5" stroke-linecap="round" stroke-linejoin="round"/>
<path d="M21 24V14M21 10.5H21.0145" stroke="#7BAD6E" stroke-width="2.5" stroke-linecap="round" stroke-linejoin="round"/>
<g clip-path="url(#clip0_2550_17006)">
<mask id="path-3-inside-1_2550_17006" fill="white">
<path d="M18 2H0V16H18V2Z"/>
</mask>
<path d="M18 2H0V16H18V2Z" fill="#D8E7D4"/>
<path d="M0 16V16.1H-0.1V16H0ZM18 16H18.1V16.1H18V16ZM0.1 2V16H-0.1V2H0.1ZM0 15.9H18V16.1H0V15.9ZM17.9 16V2H18.1V16H17.9Z" fill="#7BAD6E" mask="url(#path-3-inside-1_2550_17006)"/>
<path d="M3.58316 16.0849C4.51127 16.1048 5.40951 15.76 6.08108 15.1261C6.75265 14.4922 7.14279 13.6208 7.16602 12.7029C7.15177 12.0545 6.95456 11.4229 6.59667 10.8795L4.2411 7.41112C4.16858 7.30441 4.07063 7.21698 3.9559 7.15653C3.84116 7.09607 3.71316 7.06445 3.58316 7.06445C3.45316 7.06445 3.32516 7.09607 3.21042 7.15653C3.09569 7.21698 2.99774 7.30441 2.92522 7.41112L0.612645 10.8112C0.230379 11.3711 0.0179172 12.0275 0.000301361 12.7029C0.0235286 13.6208 0.413666 14.4922 1.08524 15.1261C1.75681 15.76 2.65505 16.1048 3.58316 16.0849ZM3.58316 8.75259L5.49575 11.5663C5.72345 11.9037 5.85075 12.2975 5.86316 12.7029C5.81967 13.2716 5.56058 13.803 5.13779 14.1907C4.715 14.5784 4.15972 14.7939 3.58316 14.7939C3.00659 14.7939 2.45131 14.5784 2.02852 14.1907C1.60573 13.803 1.34665 13.2716 1.30316 12.7029C1.31844 12.2709 1.46109 11.8528 1.71356 11.5L3.58316 8.75259Z" fill="#7BAD6E"/>
<path d="M15.9911 7.06452C15.6314 7.06452 15.3397 6.77604 15.3397 6.4202C15.3397 6.06435 15.6314 5.77588 15.9911 5.77588C16.3509 5.77588 16.6426 6.06435 16.6426 6.4202C16.6426 6.77604 16.3509 7.06452 15.9911 7.06452Z" fill="#7BAD6E"/>
<path d="M12.0829 10.9302C11.7232 10.9302 11.4315 10.6418 11.4315 10.2859C11.4315 9.93007 11.7232 9.6416 12.0829 9.6416C12.4427 9.6416 12.7344 9.93007 12.7344 10.2859C12.7344 10.6418 12.4427 10.9302 12.0829 10.9302Z" fill="#7BAD6E"/>
<path d="M9.4765 14.7964C9.11673 14.7964 8.82507 14.508 8.82507 14.1521C8.82507 13.7963 9.11673 13.5078 9.4765 13.5078C9.83628 13.5078 10.1279 13.7963 10.1279 14.1521C10.1279 14.508 9.83628 14.7964 9.4765 14.7964Z" fill="#7BAD6E"/>
<path d="M8.17377 8.35309C7.81399 8.35309 7.52234 8.06462 7.52234 7.70877C7.52234 7.35292 7.81399 7.06445 8.17377 7.06445C8.53354 7.06445 8.8252 7.35292 8.8252 7.70877C8.8252 8.06462 8.53354 8.35309 8.17377 8.35309Z" fill="#7BAD6E"/>
<path d="M10.7802 5.77545C10.4204 5.77545 10.1288 5.48698 10.1288 5.13113C10.1288 4.77529 10.4204 4.48682 10.7802 4.48682C11.14 4.48682 11.4316 4.77529 11.4316 5.13113C11.4316 5.48698 11.14 5.77545 10.7802 5.77545Z" fill="#7BAD6E"/>
<path d="M1.66009 5.77545C1.30032 5.77545 1.00867 5.48698 1.00867 5.13113C1.00867 4.77529 1.30032 4.48682 1.66009 4.48682C2.01987 4.48682 2.31152 4.77529 2.31152 5.13113C2.31152 5.48698 2.01987 5.77545 1.66009 5.77545Z" fill="#7BAD6E"/>
<path d="M13.3857 16.085C13.0259 16.085 12.7343 15.7966 12.7343 15.4407C12.7343 15.0849 13.0259 14.7964 13.3857 14.7964C13.7455 14.7964 14.0371 15.0849 14.0371 15.4407C14.0371 15.7966 13.7455 16.085 13.3857 16.085Z" fill="#7BAD6E"/>
<path d="M17.2939 12.2193C16.9341 12.2193 16.6425 11.9308 16.6425 11.575C16.6425 11.2191 16.9341 10.9307 17.2939 10.9307C17.6537 10.9307 17.9453 11.2191 17.9453 11.575C17.9453 11.9308 17.6537 12.2193 17.2939 12.2193Z" fill="#7BAD6E"/>
<path d="M18 2.5C18 2.22386 17.7761 2 17.5 2H0.5C0.223858 2 0 2.22386 0 2.5C0 2.77614 0.223858 3 0.5 3H17.5C17.7761 3 18 2.77614 18 2.5Z" fill="#7BAD6E"/>
</g>
<defs>
<clipPath id="clip0_2550_17006">
<rect width="18" height="16" fill="white" transform="matrix(-1 0 0 1 18 0)"/>
</clipPath>
</defs>
</svg>
