<svg width="35" height="35" viewBox="0 0 35 35" fill="none" xmlns="http://www.w3.org/2000/svg">
<path d="M15.7059 9.66549C19.5345 9.66549 21.7065 12.1994 22.0219 15.2601H22.1185C24.5823 15.2601 26.5797 17.252 26.5797 19.7098C26.5797 22.1675 24.5823 24.1594 22.1185 24.1594H9.29207C6.82888 24.1594 4.8315 22.1669 4.8315 19.7098C4.8315 17.2526 6.82888 15.2601 9.29267 15.2601H9.38934C9.70713 12.1788 11.8773 9.66549 15.7059 9.66549ZM4.57292 14.6148C4.70443 14.8425 4.7464 15.1109 4.69066 15.3679C4.63492 15.6248 4.48546 15.8517 4.27144 16.0044L4.18565 16.0588L3.40084 16.5119C3.1656 16.6482 2.88691 16.6886 2.62265 16.6248C2.35838 16.561 2.12886 16.3978 1.98174 16.1692C1.83462 15.9406 1.78121 15.6641 1.83261 15.3972C1.88401 15.1302 2.03627 14.8933 2.25775 14.7357L2.34355 14.6813L3.12896 14.2282C3.37174 14.088 3.66022 14.05 3.93099 14.1226C4.20177 14.1951 4.43266 14.3721 4.57292 14.6148ZM13.1134 8.85108C10.817 9.58816 9.1809 11.3227 8.50967 13.6373L8.45288 13.8427L8.3828 14.1303L8.13388 14.1768C7.41056 14.3292 6.72441 14.6228 6.11475 15.0408C5.55922 14.0888 5.35108 12.9736 5.52583 11.8853C5.70058 10.797 6.2474 9.80299 7.07305 9.07277C7.8987 8.34256 8.95207 7.92133 10.0536 7.8809C11.155 7.84047 12.2365 8.18335 13.1134 8.85108ZM3.32592 8.44568L3.40567 8.47891L4.22734 8.86195C4.47426 8.97756 4.66697 9.18408 4.76525 9.4384C4.86352 9.69271 4.85975 9.97516 4.75473 10.2268C4.6497 10.4784 4.45155 10.6797 4.20163 10.7887C3.95171 10.8976 3.66936 10.9058 3.41353 10.8116L3.33378 10.7784L2.51211 10.3953C2.26519 10.2797 2.07247 10.0732 1.9742 9.81888C1.87593 9.56457 1.8797 9.28212 1.98472 9.03052C2.08974 8.77891 2.2879 8.57761 2.53782 8.46863C2.78773 8.35965 3.07009 8.35143 3.32592 8.44568ZM14.8715 4.96387C15.0891 5.11604 15.2415 5.34451 15.2984 5.60386C15.3552 5.86322 15.3124 6.13448 15.1785 6.36372L15.1313 6.43622L14.6118 7.17935C14.4558 7.40432 14.2186 7.56002 13.9502 7.6137C13.6817 7.66738 13.403 7.61485 13.1725 7.46716C12.942 7.31947 12.7777 7.08814 12.7143 6.82183C12.6509 6.55552 12.6933 6.275 12.8325 6.03929L12.8796 5.96618L13.3992 5.22366C13.4788 5.10985 13.5801 5.01285 13.6972 4.9382C13.8144 4.86354 13.9451 4.8127 14.0818 4.78857C14.2186 4.76445 14.3588 4.76751 14.4944 4.79759C14.63 4.82767 14.7578 4.88417 14.8715 4.96387ZM8.65467 4.71072L8.69394 4.80497L9.00388 5.65685C9.09686 5.91211 9.08802 6.19338 8.97918 6.44229C8.87034 6.69121 8.66986 6.88868 8.41932 6.99375C8.16879 7.09881 7.88743 7.1034 7.6336 7.00657C7.37977 6.90974 7.17295 6.71892 7.05605 6.47368L7.01678 6.37943L6.70684 5.52756C6.61385 5.27229 6.6227 4.99103 6.73154 4.74211C6.84038 4.4932 7.04086 4.29572 7.29139 4.19066C7.54193 4.0856 7.82329 4.08101 8.07712 4.17784C8.33095 4.27467 8.53777 4.46549 8.65467 4.71072Z" fill="#ED6A46"/>
<g clip-path="url(#clip0_2337_6692)">
<path d="M20.0002 25.9678V21.2904V16.613M10.3008 33.6291H29.6996C31.2246 33.6291 32.1943 31.9307 31.469 30.5332L21.7696 11.8719C21.0081 10.4073 18.9922 10.4073 18.2307 11.8719L8.53231 30.5332C7.80501 31.9307 8.77575 33.6291 10.3008 33.6291Z" fill="#F9CCC0"/>
<path d="M20.0002 25.9678V21.2904V16.613M10.3008 33.6291H29.6996C31.2246 33.6291 32.1943 31.9307 31.469 30.5332L21.7696 11.8719C21.0081 10.4073 18.9922 10.4073 18.2307 11.8719L8.53231 30.5332C7.80501 31.9307 8.77575 33.6291 10.3008 33.6291Z" stroke="#ED6A46" stroke-width="2.5" stroke-linecap="round"/>
<path d="M21.0059 28.9517C21.0059 29.2298 20.8999 29.4964 20.7113 29.693C20.5226 29.8896 20.2668 30.0001 20 30.0001C19.7332 30.0001 19.4773 29.8896 19.2887 29.693C19.1 29.4964 18.994 29.2298 18.994 28.9517C18.994 28.6737 19.1 28.407 19.2887 28.2104C19.4773 28.0138 19.7332 27.9033 20 27.9033C20.2668 27.9033 20.5226 28.0138 20.7113 28.2104C20.8999 28.407 21.0059 28.6737 21.0059 28.9517Z" fill="#ED6A46" stroke="#ED6A46" stroke-width="0.5"/>
</g>
<defs>
<clipPath id="clip0_2337_6692">
<rect width="28.6364" height="25.4571" fill="white" transform="translate(6.36365 9.54297)"/>
</clipPath>
</defs>
</svg>
