<svg width="35" height="33" viewBox="0 0 35 33" fill="none" xmlns="http://www.w3.org/2000/svg">
<path d="M21.2879 23.4444V18.7669V14.0895M11.5902 31.1056H30.9855C32.5103 31.1056 33.4799 29.4072 32.7547 28.0097L23.057 9.34845C22.2956 7.88385 20.2801 7.88385 19.5187 9.34845L9.822 28.0097C9.09482 29.4072 10.0654 31.1056 11.5902 31.1056Z" fill="#4D332C"/>
<path d="M21.2879 23.4444V18.7669V14.0895M11.5902 31.1056H30.9855C32.5103 31.1056 33.4799 29.4072 32.7547 28.0097L23.057 9.34845C22.2956 7.88385 20.2801 7.88385 19.5187 9.34845L9.822 28.0097C9.09482 29.4072 10.0654 31.1056 11.5902 31.1056Z" stroke="#ED6A46" stroke-width="2.5" stroke-linecap="round"/>
<path d="M22.2939 26.4283C22.2939 26.7063 22.188 26.973 21.9993 27.1696C21.8107 27.3662 21.5548 27.4767 21.288 27.4767C21.0212 27.4767 20.7653 27.3662 20.5767 27.1696C20.388 26.973 20.282 26.7063 20.282 26.4283C20.282 26.1502 20.388 25.8836 20.5767 25.6869C20.7653 25.4903 21.0212 25.3799 21.288 25.3799C21.5548 25.3799 21.8107 25.4903 21.9993 25.6869C22.188 25.8836 22.2939 26.1502 22.2939 26.4283Z" fill="#ED6A46" stroke="#ED6A46" stroke-width="0.5"/>
<g clip-path="url(#clip0_2550_17751)">
<mask id="path-4-inside-1_2550_17751" fill="white">
<path d="M17.9968 2H-1.52588e-05V16H17.9968V2Z"/>
</mask>
<path d="M17.9968 2H-1.52588e-05V16H17.9968V2Z" fill="#4D332C"/>
<path d="M-1.52588e-05 16V16.1H-0.100016V16H-1.52588e-05ZM17.9968 16H18.0968V16.1H17.9968V16ZM0.0999851 2V16H-0.100016V2H0.0999851ZM-1.52588e-05 15.9H17.9968V16.1H-1.52588e-05V15.9ZM17.8968 16V2H18.0968V16H17.8968Z" fill="#ED6A46" mask="url(#path-4-inside-1_2550_17751)"/>
<path d="M3.58251 16.0849C4.51045 16.1048 5.40853 15.76 6.07999 15.1261C6.75144 14.4922 7.14151 13.6208 7.16473 12.7029C7.15049 12.0545 6.95332 11.4229 6.59548 10.8795L4.24033 7.41112C4.16782 7.30441 4.06989 7.21698 3.95518 7.15653C3.84046 7.09607 3.71248 7.06445 3.58251 7.06445C3.45253 7.06445 3.32455 7.09607 3.20983 7.15653C3.09512 7.21698 2.99719 7.30441 2.92468 7.41112L0.612513 10.8112C0.230314 11.3711 0.01789 12.0275 0.000277042 12.7029C0.0235004 13.6208 0.413569 14.4922 1.08502 15.1261C1.75648 15.76 2.65456 16.1048 3.58251 16.0849ZM3.58251 8.75259L5.49476 11.5663C5.72242 11.9037 5.8497 12.2975 5.86211 12.7029C5.81862 13.2716 5.55958 13.803 5.13687 14.1907C4.71415 14.5784 4.15897 14.7939 3.58251 14.7939C3.00604 14.7939 2.45086 14.5784 2.02814 14.1907C1.60543 13.803 1.34639 13.2716 1.30291 12.7029C1.31818 12.2709 1.46081 11.8528 1.71323 11.5L3.58251 8.75259Z" fill="#ED6A46"/>
<path d="M15.9882 7.06452C15.6284 7.06452 15.3368 6.77604 15.3368 6.4202C15.3368 6.06435 15.6284 5.77588 15.9882 5.77588C16.348 5.77588 16.6396 6.06435 16.6396 6.4202C16.6396 6.77604 16.348 7.06452 15.9882 7.06452Z" fill="#ED6A46"/>
<path d="M12.0807 10.9302C11.7209 10.9302 11.4293 10.6418 11.4293 10.2859C11.4293 9.93007 11.7209 9.6416 12.0807 9.6416C12.4405 9.6416 12.7321 9.93007 12.7321 10.2859C12.7321 10.6418 12.4405 10.9302 12.0807 10.9302Z" fill="#ED6A46"/>
<path d="M9.47473 14.7964C9.11496 14.7964 8.8233 14.508 8.8233 14.1521C8.8233 13.7963 9.11496 13.5078 9.47473 13.5078C9.83451 13.5078 10.1262 13.7963 10.1262 14.1521C10.1262 14.508 9.83451 14.7964 9.47473 14.7964Z" fill="#ED6A46"/>
<path d="M8.17224 8.35309C7.81247 8.35309 7.52081 8.06462 7.52081 7.70877C7.52081 7.35292 7.81247 7.06445 8.17224 7.06445C8.53201 7.06445 8.82367 7.35292 8.82367 7.70877C8.82367 8.06462 8.53201 8.35309 8.17224 8.35309Z" fill="#ED6A46"/>
<path d="M10.7782 5.77545C10.4184 5.77545 10.1268 5.48698 10.1268 5.13113C10.1268 4.77529 10.4184 4.48682 10.7782 4.48682C11.138 4.48682 11.4296 4.77529 11.4296 5.13113C11.4296 5.48698 11.138 5.77545 10.7782 5.77545Z" fill="#ED6A46"/>
<path d="M1.65967 5.77545C1.29989 5.77545 1.00824 5.48698 1.00824 5.13113C1.00824 4.77529 1.29989 4.48682 1.65967 4.48682C2.01944 4.48682 2.3111 4.77529 2.3111 5.13113C2.3111 5.48698 2.01944 5.77545 1.65967 5.77545Z" fill="#ED6A46"/>
<path d="M13.3832 16.085C13.0235 16.085 12.7318 15.7966 12.7318 15.4407C12.7318 15.0849 13.0235 14.7964 13.3832 14.7964C13.743 14.7964 14.0347 15.0849 14.0347 15.4407C14.0347 15.7966 13.743 16.085 13.3832 16.085Z" fill="#ED6A46"/>
<path d="M17.2907 12.2193C16.9309 12.2193 16.6393 11.9308 16.6393 11.575C16.6393 11.2191 16.9309 10.9307 17.2907 10.9307C17.6505 10.9307 17.9421 11.2191 17.9421 11.575C17.9421 11.9308 17.6505 12.2193 17.2907 12.2193Z" fill="#ED6A46"/>
<path d="M17.9968 2.5C17.9968 2.22386 17.773 2 17.4968 2H0.499985C0.223843 2 -1.52588e-05 2.22386 -1.52588e-05 2.5C-1.52588e-05 2.77614 0.223843 3 0.499985 3H17.4968C17.773 3 17.9968 2.77614 17.9968 2.5Z" fill="#ED6A46"/>
</g>
<defs>
<clipPath id="clip0_2550_17751">
<rect width="35" height="33" fill="white" transform="matrix(-1 0 0 1 35 0)"/>
</clipPath>
</defs>
</svg>
