<svg width="35" height="33" viewBox="0 0 35 33" fill="none" xmlns="http://www.w3.org/2000/svg">
<path d="M21 28.9998C27.6274 28.9998 33 23.6272 33 16.9998C33 10.3723 27.6274 4.99976 21 4.99976C14.3726 4.99976 9 10.3723 9 16.9998C9 23.6272 14.3726 28.9998 21 28.9998Z" fill="#635524" stroke="#F3C623" stroke-width="2.5" stroke-linecap="round" stroke-linejoin="round"/>
<path d="M21 23.9998V13.9998M21 10.4998H21.0145" stroke="#F3C623" stroke-width="2.5" stroke-linecap="round" stroke-linejoin="round"/>
<g clip-path="url(#clip0_2550_16946)">
<mask id="path-3-inside-1_2550_16946" fill="white">
<path d="M18 1.99976H0V15.9998H18V1.99976Z"/>
</mask>
<path d="M18 1.99976H0V15.9998H18V1.99976Z" fill="#635524"/>
<path d="M0 15.9998V16.0998H-0.1V15.9998H0ZM18 15.9998H18.1V16.0998H18V15.9998ZM0.1 1.99976V15.9998H-0.1V1.99976H0.1ZM0 15.8998H18V16.0998H0V15.8998ZM17.9 15.9998V1.99976H18.1V15.9998H17.9Z" fill="#F3C623" mask="url(#path-3-inside-1_2550_16946)"/>
<path d="M3.58316 16.0847C4.51127 16.1046 5.40951 15.7598 6.08108 15.1259C6.75265 14.4919 7.14279 13.6206 7.16602 12.7027C7.15177 12.0542 6.95456 11.4227 6.59667 10.8792L4.2411 7.41088C4.16858 7.30417 4.07063 7.21673 3.9559 7.15628C3.84116 7.09583 3.71316 7.06421 3.58316 7.06421C3.45316 7.06421 3.32516 7.09583 3.21042 7.15628C3.09569 7.21673 2.99774 7.30417 2.92522 7.41088L0.612645 10.8109C0.230379 11.3709 0.0179172 12.0272 0.000301361 12.7027C0.0235286 13.6206 0.413666 14.4919 1.08524 15.1259C1.75681 15.7598 2.65505 16.1046 3.58316 16.0847ZM3.58316 8.75235L5.49575 11.5661C5.72345 11.9034 5.85075 12.2972 5.86316 12.7027C5.81967 13.2713 5.56058 13.8027 5.13779 14.1904C4.715 14.5782 4.15972 14.7936 3.58316 14.7936C3.00659 14.7936 2.45131 14.5782 2.02852 14.1904C1.60573 13.8027 1.34665 13.2713 1.30316 12.7027C1.31844 12.2707 1.46109 11.8525 1.71356 11.4997L3.58316 8.75235Z" fill="#F3C623"/>
<path d="M15.9911 7.06427C15.6314 7.06427 15.3397 6.7758 15.3397 6.41995C15.3397 6.06411 15.6314 5.77563 15.9911 5.77563C16.3509 5.77563 16.6426 6.06411 16.6426 6.41995C16.6426 6.7758 16.3509 7.06427 15.9911 7.06427Z" fill="#F3C623"/>
<path d="M12.0829 10.93C11.7232 10.93 11.4315 10.6415 11.4315 10.2857C11.4315 9.92983 11.7232 9.64136 12.0829 9.64136C12.4427 9.64136 12.7344 9.92983 12.7344 10.2857C12.7344 10.6415 12.4427 10.93 12.0829 10.93Z" fill="#F3C623"/>
<path d="M9.4765 14.7962C9.11673 14.7962 8.82507 14.5077 8.82507 14.1519C8.82507 13.796 9.11673 13.5076 9.4765 13.5076C9.83628 13.5076 10.1279 13.796 10.1279 14.1519C10.1279 14.5077 9.83628 14.7962 9.4765 14.7962Z" fill="#F3C623"/>
<path d="M8.17377 8.35285C7.81399 8.35285 7.52234 8.06437 7.52234 7.70853C7.52234 7.35268 7.81399 7.06421 8.17377 7.06421C8.53354 7.06421 8.8252 7.35268 8.8252 7.70853C8.8252 8.06437 8.53354 8.35285 8.17377 8.35285Z" fill="#F3C623"/>
<path d="M10.7802 5.77521C10.4204 5.77521 10.1288 5.48674 10.1288 5.13089C10.1288 4.77504 10.4204 4.48657 10.7802 4.48657C11.14 4.48657 11.4316 4.77504 11.4316 5.13089C11.4316 5.48674 11.14 5.77521 10.7802 5.77521Z" fill="#F3C623"/>
<path d="M1.66009 5.77521C1.30032 5.77521 1.00867 5.48674 1.00867 5.13089C1.00867 4.77504 1.30032 4.48657 1.66009 4.48657C2.01987 4.48657 2.31152 4.77504 2.31152 5.13089C2.31152 5.48674 2.01987 5.77521 1.66009 5.77521Z" fill="#F3C623"/>
<path d="M13.3857 16.0848C13.0259 16.0848 12.7343 15.7963 12.7343 15.4405C12.7343 15.0846 13.0259 14.7961 13.3857 14.7961C13.7455 14.7961 14.0371 15.0846 14.0371 15.4405C14.0371 15.7963 13.7455 16.0848 13.3857 16.0848Z" fill="#F3C623"/>
<path d="M17.2939 12.2191C16.9341 12.2191 16.6425 11.9306 16.6425 11.5747C16.6425 11.2189 16.9341 10.9304 17.2939 10.9304C17.6537 10.9304 17.9453 11.2189 17.9453 11.5747C17.9453 11.9306 17.6537 12.2191 17.2939 12.2191Z" fill="#F3C623"/>
<path d="M18 2.49976C18 2.22361 17.7761 1.99976 17.5 1.99976H0.5C0.223858 1.99976 0 2.22361 0 2.49976C0 2.7759 0.223858 2.99976 0.5 2.99976H17.5C17.7761 2.99976 18 2.7759 18 2.49976Z" fill="#F3C623"/>
</g>
<defs>
<clipPath id="clip0_2550_16946">
<rect width="18" height="16" fill="white" transform="matrix(-1 0 0 1 18 -0.000244141)"/>
</clipPath>
</defs>
</svg>
