<svg width="35" height="33" viewBox="0 0 35 33" fill="none" xmlns="http://www.w3.org/2000/svg">
<path d="M20 31C26.6274 31 32 25.6274 32 19C32 12.3726 26.6274 7 20 7C13.3726 7 8 12.3726 8 19C8 25.6274 13.3726 31 20 31Z" fill="#635524" stroke="#F3C623" stroke-width="2.5" stroke-linecap="round" stroke-linejoin="round"/>
<path d="M20 26V16M20 12.5H20.0145" stroke="#F3C623" stroke-width="2.5" stroke-linecap="round" stroke-linejoin="round"/>
<g clip-path="url(#clip0_2550_16919)">
<path d="M2.8 4.83208C2.8 3.74492 3.2425 2.70227 4.03015 1.93353C4.8178 1.16479 5.88609 0.73291 7 0.73291C8.11391 0.73291 9.1822 1.16479 9.96985 1.93353C10.7575 2.70227 11.2 3.74492 11.2 4.83208V15.7632C12.3753 16.6236 13.2435 17.823 13.6816 19.1917C14.1197 20.5604 14.1054 22.0289 13.6408 23.3892C13.1762 24.7496 12.2848 25.9327 11.093 26.7712C9.90111 27.6096 8.46918 28.0607 7 28.0607C5.53082 28.0607 4.09889 27.6096 2.90703 26.7712C1.71517 25.9327 0.823812 24.7496 0.359217 23.3892C-0.105378 22.0289 -0.119656 20.5604 0.318405 19.1917C0.756466 17.823 1.62466 16.6236 2.8 15.7632V4.83208Z" fill="#635524"/>
<path d="M2.8 4.83208C2.8 3.74492 3.2425 2.70227 4.03015 1.93353C4.8178 1.16479 5.88609 0.73291 7 0.73291C8.11391 0.73291 9.1822 1.16479 9.96985 1.93353C10.7575 2.70227 11.2 3.74492 11.2 4.83208V15.7632C12.3753 16.6236 13.2435 17.823 13.6816 19.1917C14.1197 20.5604 14.1054 22.0289 13.6408 23.3892C13.1762 24.7496 12.2848 25.9327 11.093 26.7712C9.90111 27.6096 8.46918 28.0607 7 28.0607C5.53082 28.0607 4.09889 27.6096 2.90703 26.7712C1.71517 25.9327 0.823812 24.7496 0.359217 23.3892C-0.105378 22.0289 -0.119656 20.5604 0.318405 19.1917C0.756466 17.823 1.62466 16.6236 2.8 15.7632V4.83208ZM7 3.46569C6.6287 3.46569 6.2726 3.60965 6.01005 3.8659C5.7475 4.12215 5.6 4.46969 5.6 4.83208V16.4942C5.59999 16.7341 5.5353 16.9697 5.41243 17.1774C5.28955 17.3851 5.11282 17.5576 4.9 17.6775C4.09916 18.1286 3.4732 18.825 3.11924 19.6587C2.76527 20.4924 2.70308 21.4168 2.94231 22.2885C3.18153 23.1602 3.70881 23.9305 4.44234 24.4799C5.17588 25.0293 6.07467 25.3271 6.9993 25.3271C7.92393 25.3271 8.82273 25.0293 9.55626 24.4799C10.2898 23.9305 10.8171 23.1602 11.0563 22.2885C11.2955 21.4168 11.2333 20.4924 10.8794 19.6587C10.5254 18.825 9.89944 18.1286 9.0986 17.6775C8.88604 17.5574 8.70959 17.3849 8.58697 17.1772C8.46434 16.9695 8.39986 16.7339 8.4 16.4942V4.83208C8.4 4.46969 8.2525 4.12215 7.98995 3.8659C7.7274 3.60965 7.3713 3.46569 7 3.46569Z" fill="#F3C623"/>
</g>
<defs>
<clipPath id="clip0_2550_16919">
<rect width="14" height="29" fill="white"/>
</clipPath>
</defs>
</svg>
