<svg width="35" height="33" viewBox="0 0 35 33" fill="none" xmlns="http://www.w3.org/2000/svg">
<g clip-path="url(#clip0_2337_6881)">
<path d="M13.8924 5.5571C17.721 5.5571 19.8929 8.09097 20.2083 11.1517H20.305C22.7688 11.1517 24.7662 13.1436 24.7662 15.6014C24.7662 18.0591 22.7688 20.051 20.305 20.051H7.47853C5.01534 20.051 3.01797 18.0585 3.01797 15.6014C3.01797 13.1442 5.01534 11.1517 7.47913 11.1517H7.5758C7.89359 8.07043 10.0638 5.5571 13.8924 5.5571ZM2.75938 10.5064C2.89089 10.7341 2.93287 11.0025 2.87712 11.2595C2.82138 11.5164 2.67192 11.7433 2.4579 11.896L2.37211 11.9504L1.5873 12.4035C1.35207 12.5398 1.07337 12.5802 0.809111 12.5164C0.544847 12.4526 0.31532 12.2894 0.168199 12.0608C0.0210792 11.8322 -0.0323271 11.5557 0.0190727 11.2888C0.0704725 11.0218 0.222728 10.7849 0.444217 10.6273L0.530009 10.5729L1.31543 10.1198C1.5582 9.97963 1.84668 9.94165 2.11746 10.0142C2.38823 10.0867 2.61912 10.2637 2.75938 10.5064ZM11.2999 4.74268C9.00345 5.47976 7.36736 7.21432 6.69613 9.52889L6.63934 9.7343L6.56926 10.0219L6.32034 10.0684C5.59702 10.2208 4.91088 10.5144 4.30122 10.9324C3.74568 9.98037 3.53754 8.86516 3.71229 7.77687C3.88704 6.68858 4.43386 5.69459 5.25951 4.96437C6.08516 4.23416 7.13853 3.81293 8.24002 3.7725C9.34151 3.73208 10.4229 4.07495 11.2999 4.74268ZM1.51238 4.33728L1.59213 4.37051L2.4138 4.75355C2.66072 4.86916 2.85344 5.07568 2.95171 5.33C3.04998 5.58431 3.04621 5.86676 2.94119 6.11837C2.83617 6.36997 2.63801 6.57128 2.38809 6.68025C2.13818 6.78923 1.85582 6.79745 1.59999 6.7032L1.52024 6.66997L0.698571 6.28693C0.451652 6.17132 0.258935 5.9648 0.160663 5.71048C0.0623905 5.45617 0.0661593 5.17372 0.171182 4.92212C0.276206 4.67051 0.474364 4.46921 0.72428 4.36023C0.974197 4.25125 1.25655 4.24303 1.51238 4.33728ZM13.058 0.855472C13.2756 1.00764 13.428 1.23611 13.4848 1.49547C13.5417 1.75482 13.4989 2.02608 13.3649 2.25533L13.3178 2.32783L12.7982 3.07095C12.6422 3.29592 12.4051 3.45163 12.1366 3.50531C11.8682 3.55898 11.5894 3.50645 11.3589 3.35876C11.1284 3.21107 10.9642 2.97974 10.9008 2.71343C10.8374 2.44712 10.8797 2.1666 11.0189 1.93089L11.0661 1.85778L11.5857 1.11526C11.6653 1.00146 11.7666 0.904453 11.8837 0.829799C12.0008 0.755145 12.1315 0.704302 12.2683 0.680176C12.4051 0.656051 12.5453 0.659114 12.6809 0.689192C12.8165 0.71927 12.9442 0.775772 13.058 0.855472ZM6.84113 0.602326L6.8804 0.696576L7.19034 1.54845C7.28332 1.80372 7.27448 2.08498 7.16564 2.3339C7.0568 2.58281 6.85632 2.78028 6.60579 2.88535C6.35525 2.99041 6.07389 2.995 5.82006 2.89817C5.56623 2.80134 5.35941 2.61052 5.24251 2.36528L5.20324 2.27103L4.8933 1.41916C4.80032 1.16389 4.80916 0.882632 4.918 0.633715C5.02684 0.384797 5.22732 0.187326 5.47785 0.0822632C5.72839 -0.0227998 6.00975 -0.027392 6.26358 0.069439C6.51741 0.16627 6.72423 0.357093 6.84113 0.602326Z" fill="#F3C623"/>
</g>
<path d="M21 31C27.6274 31 33 25.6274 33 19C33 12.3726 27.6274 7 21 7C14.3726 7 9 12.3726 9 19C9 25.6274 14.3726 31 21 31Z" fill="#FCEEBD" stroke="#F3C623" stroke-width="2.5" stroke-linecap="round" stroke-linejoin="round"/>
<path d="M21 26V16M21 12.5H21.0145" stroke="#F3C623" stroke-width="2.5" stroke-linecap="round" stroke-linejoin="round"/>
<defs>
<clipPath id="clip0_2337_6881">
<rect width="24.7662" height="20.051" fill="white"/>
</clipPath>
</defs>
</svg>
